<svg width="200" height="200" viewBox="0 0 200 200" fill="none" xmlns="http://www.w3.org/2000/svg">
  <!-- Outer ring -->
  <circle cx="100" cy="100" r="85" stroke="url(#ringGradient)" stroke-width="2" opacity="0.4"/>
  
  <!-- Central core -->
  <circle cx="100" cy="100" r="24" fill="url(#coreGradient)"/>
  
  <!-- Peer nodes -->
  <!-- Node 1 -->
  <line x1="100" y1="100" x2="160" y2="100" stroke="#F59E0B" stroke-width="1.5" opacity="0.5" stroke-dasharray="4 4"/>
  <circle cx="160" cy="100" r="12" fill="#60A5FA"/>
  <circle cx="157" cy="97" r="3" fill="white" opacity="0.8"/>
  
  <!-- Node 2 -->
  <line x1="100" y1="100" x2="117.08" y2="157.08" stroke="#F59E0B" stroke-width="1.5" opacity="0.5" stroke-dasharray="4 4"/>
  <circle cx="117.08" cy="157.08" r="12" fill="#7C3AED"/>
  <circle cx="114.08" cy="154.08" r="3" fill="white" opacity="0.8"/>
  
  <!-- Node 3 -->
  <line x1="100" y1="100" x2="51.43" y2="142.92" stroke="#F59E0B" stroke-width="1.5" opacity="0.5" stroke-dasharray="4 4"/>
  <circle cx="51.43" cy="142.92" r="12" fill="#EC4899"/>
  <circle cx="48.43" cy="139.92" r="3" fill="white" opacity="0.8"/>
  
  <!-- Node 4 -->
  <line x1="100" y1="100" x2="51.43" y2="57.08" stroke="#F59E0B" stroke-width="1.5" opacity="0.5" stroke-dasharray="4 4"/>
  <circle cx="51.43" cy="57.08" r="12" fill="#8B5CF6"/>
  <circle cx="48.43" cy="54.08" r="3" fill="white" opacity="0.8"/>
  
  <!-- Node 5 -->
  <line x1="100" y1="100" x2="117.08" y2="42.92" stroke="#F59E0B" stroke-width="1.5" opacity="0.5" stroke-dasharray="4 4"/>
  <circle cx="117.08" cy="42.92" r="12" fill="#3B82F6"/>
  <circle cx="114.08" cy="39.92" r="3" fill="white" opacity="0.8"/>
  
  <!-- Crown -->
  <g transform="translate(100, 100)">
    <path d="M -10 4 L -12 8 L 12 8 L 10 4 Z" fill="url(#crownGradient)"/>
    <path d="M -10 4 L -8 -8 L -6 4 M -2 4 L 0 -10 L 2 4 M 6 4 L 8 -8 L 10 4" fill="url(#crownGradient)"/>
    <line x1="-3" y1="2" x2="-1" y2="-2" stroke="white" stroke-width="1.5" opacity="0.5" stroke-linecap="round"/>
  </g>
  
  <!-- Gradients -->
  <defs>
    <radialGradient id="coreGradient">
      <stop offset="0%" stop-color="#FCD34D"/>
      <stop offset="50%" stop-color="#F59E0B"/>
      <stop offset="100%" stop-color="#D97706"/>
    </radialGradient>
    
    <linearGradient id="ringGradient" x1="0%" y1="0%" x2="100%" y2="100%">
      <stop offset="0%" stop-color="#60A5FA"/>
      <stop offset="50%" stop-color="#8B5CF6"/>
      <stop offset="100%" stop-color="#EC4899"/>
    </linearGradient>
    
    <linearGradient id="crownGradient" x1="0%" y1="0%" x2="0%" y2="100%">
      <stop offset="0%" stop-color="#CD7F32"/>
      <stop offset="50%" stop-color="#A0522D"/>
      <stop offset="100%" stop-color="#8B4513"/>
    </linearGradient>
  </defs>
</svg>
